<?xml version="1.0" encoding="utf-8"?>
<!-- Generator: Adobe Illustrator 27.9.0, SVG Export Plug-In . SVG Version: 6.00 Build 0)  -->
<svg version="1.1" id="Layer_1" xmlns="http://www.w3.org/2000/svg" xmlns:xlink="http://www.w3.org/1999/xlink" x="0px" y="0px"
	 viewBox="0 0 1000 1000" style="enable-background:new 0 0 1000 1000;" xml:space="preserve">
<style type="text/css">
	.st0{fill:none;stroke:#5B87C5;stroke-width:11;stroke-miterlimit:10;}
	.st1{fill:#5B87C5;}
	.st2{fill:#162950;}
	.st3{fill:none;stroke:#5B87C5;stroke-width:20;stroke-miterlimit:10;}
	.st4{fill:#FFFFFF;}
	.st5{fill:none;stroke:#0F81C2;stroke-width:39.8747;stroke-miterlimit:10;}
	.st6{fill:#0F81C2;}
</style>
<g>
	
		<ellipse transform="matrix(0.7071 -0.7071 0.7071 0.7071 -205.1756 499.2)" class="st5" cx="500" cy="497.27" rx="222.13" ry="580.88"/>
	
		<ellipse transform="matrix(0.7071 -0.7071 0.7071 0.7071 -205.1756 499.2)" class="st5" cx="500" cy="497.27" rx="580.88" ry="222.13"/>
</g>
<path class="st6" d="M632.73,365.31c-43.56-43.56-88.32-82.15-132.34-114.93c-44.02,32.78-88.78,71.37-132.34,114.93
	c-43.56,43.56-82.15,88.33-114.93,132.34c32.78,44.02,71.37,88.78,114.93,132.34c43.56,43.56,88.33,82.15,132.34,114.93
	c44.02-32.78,88.78-71.37,132.34-114.93c43.56-43.56,82.15-88.33,114.93-132.34C714.88,453.64,676.29,408.88,632.73,365.31z
	 M528.81,504.72c5.13,23.78,8.84,47.89,14.75,71.46c4.35,17.34-2.41,22.16-18.17,21.28c-9.71-0.54-19.47-0.1-29.22-0.1
	c0,0.03,0,0.05,0,0.08c-10.96,0-21.91-0.02-32.87,0c-11.26,0.02-15.01-5.17-12.65-16.28c5.69-26.77,11.73-53.53,15.6-80.59
	c1.18-8.23-2.05-18.99-7.04-25.84c-15.27-20.94-14.52-50.56,3.72-68.41c18.34-17.95,48.44-18.25,67.94-0.67
	c19.24,17.35,22.32,47.46,4.81,67.36C526.69,483.26,526.26,492.88,528.81,504.72z"/>
</svg>
